<svg version="1.2" xmlns="http://www.w3.org/2000/svg" viewBox="0 0 156 50" width="156" height="50">
	<title>white-logo-svg</title>
	<defs>
		<linearGradient id="g1" x2="1" gradientUnits="userSpaceOnUse" gradientTransform="matrix(0,50.134,-33.454,0,13.261,-1.131)">
			<stop offset="0" stop-color="#faaf40"/>
			<stop offset="1" stop-color="#ee4036"/>
		</linearGradient>
		<linearGradient id="g2" x2="1" gradientUnits="userSpaceOnUse" gradientTransform="matrix(0,50.134,-33.454,0,33.733,-1.131)">
			<stop offset="0" stop-color="#faaf40"/>
			<stop offset="1" stop-color="#ee4036"/>
		</linearGradient>
		<linearGradient id="g3" x2="1" gradientUnits="userSpaceOnUse" gradientTransform="matrix(0,-37.919,30.56,0,11.26,53.922)">
			<stop offset="0" stop-color="#26cdba"/>
			<stop offset="1" stop-color="#6336e6"/>
		</linearGradient>
		<linearGradient id="g4" x2="1" gradientUnits="userSpaceOnUse" gradientTransform="matrix(0,-37.919,19.111,0,15.61,53.922)">
			<stop offset="0" stop-color="#26cdba"/>
			<stop offset="1" stop-color="#6336e6"/>
		</linearGradient>
		<linearGradient id="g5" x2="1" gradientUnits="userSpaceOnUse" gradientTransform="matrix(0,-37.919,30.56,0,35.735,53.922)">
			<stop offset="0" stop-color="#26cdba"/>
			<stop offset="1" stop-color="#6336e6"/>
		</linearGradient>
		<linearGradient id="g6" x2="1" gradientUnits="userSpaceOnUse" gradientTransform="matrix(0,-37.918,19.111,0,31.386,53.921)">
			<stop offset="0" stop-color="#26cdba"/>
			<stop offset="1" stop-color="#6336e6"/>
		</linearGradient>
		<linearGradient id="g7" x2="1" gradientUnits="userSpaceOnUse" gradientTransform="matrix(0,50.134,-15.061,0,22.938,-1.13)">
			<stop offset="0" stop-color="#faaf40"/>
			<stop offset="1" stop-color="#ee4036"/>
		</linearGradient>
	</defs>
	<style>
		tspan { white-space:pre } 
		.s0 { fill: url(#g1) } 
		.s1 { fill: url(#g2) } 
		.s2 { fill: url(#g3) } 
		.s3 { fill: url(#g4) } 
		.s4 { fill: url(#g5) } 
		.s5 { fill: url(#g6) } 
		.s6 { fill: url(#g7) } 
		.s7 { opacity: .3;fill: #000000 } 
		.t8 { font-size: 22px;fill: #ffffff;font-weight: 400;font-family: "DelaGothicOne-Regular", "Dela Gothic One" } 
	</style>
	<path class="s0" d="m22.5 46.8v0.9c-1.6-2.2-6.4-6.7-18.5-8.9v-18.8q2 0.4 3.9 0.8v16.2l0.3 0.1c6.3 1.5 9.8 4 11.7 6q0.6 0.6 1 1.1 0.1 0.1 0.2 0.2 0.1 0.1 0.2 0.2 0 0.1 0.1 0.2 0.2 0.4 0.4 0.7 0.1 0.1 0.2 0.2 0.4 0.7 0.5 1 0 0 0 0.1 0 0 0 0z"/>
	<path class="s1" d="m24.5 46.8v0.9c1.6-2.2 6.4-6.7 18.5-8.9v-18.8q-2 0.4-3.9 0.8v16.2l-0.3 0.1c-6.3 1.5-9.8 4-11.7 6q-0.6 0.6-1 1.1-0.1 0.1-0.2 0.2-0.1 0.1-0.2 0.2 0 0.1-0.1 0.2-0.2 0.4-0.4 0.7-0.1 0.1-0.2 0.2-0.4 0.7-0.5 1 0 0 0 0.1 0 0 0 0z"/>
	<path class="s2" d="m22.5 49.3v0.7c-1.8-2.1-7.4-6.9-22.5-9.1v-18.8q1.6 0.2 3.2 0.5v16.9l0.3 0.1c8.3 1.5 13.1 4 15.6 6 2.4 1.8 3.3 3.4 3.4 3.7z"/>
	<path class="s3" d="m22.5 41.3v3.7c-0.4-0.7-1-1.5-1.9-2.5-2-1.9-5.6-4.6-11.9-6.1v-18.8c6 1.5 9.4 4 11.2 5.8q0.8 0.9 1.4 1.6 0 0.1-0.1 0.2-1 2.6-3.5 3.5l-0.9 0.3 0.4 0.8 5 10.9v0.1z"/>
	<path class="s4" d="m24.5 49.3v0.7c1.8-2.1 7.4-6.9 22.5-9.1v-18.8q-1.6 0.2-3.2 0.5v16.9l-0.3 0.1c-8.3 1.5-13.1 4-15.6 6-2.4 1.8-3.3 3.4-3.4 3.7z"/>
	<path class="s5" d="m38.3 17.6v18.8c-6.3 1.5-9.9 4.2-11.9 6.1-0.9 1-1.5 1.8-1.9 2.5v-3.7l0.3-0.7 5-10.8 0.4-0.9-0.9-0.3q-2.5-0.8-3.5-3.5-0.1 0-0.1-0.1 0.6-0.7 1.4-1.6c1.8-1.8 5.2-4.3 11.2-5.8z"/>
	<path class="s6" d="m25.2 31.1c0-0.9-0.6-1.7-1.5-1.8q-0.2-0.1-0.4-0.1-0.4 0-0.8 0.2c-0.7 0.3-1.1 1-1.1 1.7q0 0.8 0.4 1.3 0.3 0.3 0.7 0.5 0.2 0.1 0.4 0.2v7.2l-0.4-1-1.5-3.2-3-6.6c1.2-0.5 2.1-1.1 2.8-1.9q0.7-0.8 1.1-1.7c0.7-1.7 0.7-3.4 0.7-3.4v-0.3c0-1.6-0.4-2.3-1.3-3.3-0.5-0.5-1.1-1.1-1.8-1.9-0.2-0.2-0.5-0.5-0.8-0.8-2-2.4-1.9-5.1-1.7-6.1q0-0.3 0-0.5 0 0 0 0c0.5-2.4 2.1-6.3 7.1-9.6q0 0 0 0.1c-0.1 0.6-0.8 2.2 1.3 5.1 1.4 2 0.8 4.2 0.8 4.2 1.2-1.5 0.4-3.1 0.4-3.2q0 0 0 0c4 3.2 2 7.8-0.2 11.5-2 3.5-2 4.5-2 4.5v0.3c0 0 0 2.4 1.4 4.5 0.6 1 1.7 1.9 3.2 2.5l-5 10.8v-7.3c0.7-0.4 1.2-1.1 1.2-1.9z"/>
	<path class="s7" d="m24.4 22.2v0.3c0 0 0 2.4 1.4 4.5 0 0-1 0.8-2.1 2.3q-0.2-0.1-0.4-0.1-0.4 0-0.8 0.2c-0.7 0.3-1.1 1-1.1 1.7q0 0.8 0.4 1.3c-0.5 1.1-0.8 2.4-0.8 3.6l-3-6.6c1.2-0.4 2.1-1 2.7-1.8q0.8-0.8 1.1-1.7c0.8-1.8 0.8-3.4 0.8-3.4v-0.3c0-1.6-0.4-2.4-1.3-3.3-0.5-0.5-1.1-1.1-1.8-1.9 10.4-3.9 7.2-10.6 7.1-10.8q0 0 0 0c4 3.2 2 7.8-0.1 11.5-2.1 3.5-2.1 4.5-2.1 4.5z"/>
	<path class="s7" d="m38.3 17.6v18.8c-6.3 1.5-9.9 4.2-11.9 6.1-0.9 1-1.5 1.8-1.9 2.5 0 0 2.8-10.6 13.8-27.4z"/>
	<path class="s7" d="m22.5 45c-0.4-0.7-1-1.5-1.9-2.5-2-1.9-5.6-4.6-11.9-6.1 4.7-7.9 11.2-13 11.2-13l1.4 1.6q0 0.1-0.1 0.2-1 2.6-3.5 3.5l-0.9 0.3 0.4 0.8 5 10.9 0.3 0.6z"/>
	<text id="PHƯƠNG        THU" style="transform: matrix(1,0,0,1,34.5,21)" >
		<tspan x="0" y="0" class="t8">P</tspan><tspan  y="0" class="t8">H</tspan><tspan  y="0" class="t8">Ư</tspan><tspan  y="0" class="t8">Ơ</tspan><tspan  y="0" class="t8">N</tspan><tspan  y="0" class="t8">G</tspan><tspan  y="0" class="t8">
</tspan>
		<tspan x="0" y="26.4" class="t8"> </tspan><tspan  y="26.4" class="t8"> </tspan><tspan  y="26.4" class="t8"> </tspan><tspan  y="26.4" class="t8"> </tspan><tspan  y="26.4" class="t8"> </tspan><tspan  y="26.4" class="t8"> </tspan><tspan  y="26.4" class="t8"> </tspan><tspan  y="26.4" class="t8">T</tspan><tspan  y="26.4" class="t8">H</tspan><tspan  y="26.4" class="t8">U</tspan><tspan  y="26.4" class="t8">
</tspan>
	</text>
</svg>